# xmcd CD database file
#
# Track frame offsets:
#	150
#	11636
#	29904
#	44111
#	61653
#	74228
#	91885
#	105569
#	119854
#	134263
#	143170
#
# Disc length: 2077 seconds
#
# Revision: 0
# Processed by: cddbd v1.5.2PL0 Copyright (c) Steve Scherf et al.
# Submitted via: CDex 1.70beta2
#
DISCID=ac081b0b
DTITLE=Marilyn Perrot - Memories of Vietnam
DYEAR=1900
DGENRE=Country
TTITLE0=01 - Is there a Reason
TTITLE1=02 - Dear Mum - Dear Son
TTITLE2=03 - Lights Out
TTITLE3=04 - Crying for a friend
TTITLE4=05 - It's Over
TTITLE5=06 - The forgotten ones
TTITLE6=07 - A Mate who's lost
TTITLE7=08 - What my medals mean
TTITLE8=09 - A Very Special Man
TTITLE9=10 - Our Welcome Parade
TTITLE10=11 - We remember - we give thanks
EXTD=
EXTT0=
EXTT1=
EXTT2=
EXTT3=
EXTT4=
EXTT5=
EXTT6=
EXTT7=
EXTT8=
EXTT9=
EXTT10=
PLAYORDER=
